<?xml version="1.0" standalone="no"?>
<!DOCTYPE svg PUBLIC "-//W3C//DTD SVG 20010904//EN"
 "http://www.w3.org/TR/2001/REC-SVG-20010904/DTD/svg10.dtd">
<svg version="1.0" xmlns="http://www.w3.org/2000/svg"
 width="1536.000000pt" height="1024.000000pt" viewBox="0 0 1536.000000 1024.000000"
 preserveAspectRatio="xMidYMid meet">

<g transform="translate(0.000000,1024.000000) scale(0.100000,-0.100000)"
fill="#A3040C" stroke="none">
<path d="M5285 8240 c-489 -77 -831 -428 -895 -921 -50 -387 71 -774 321
-1020 l79 -79 -33 -52 c-19 -29 -58 -98 -87 -153 -145 -272 -206 -346 -410
-492 -47 -34 -95 -72 -107 -85 -51 -54 -68 -162 -39 -233 22 -51 70 -107 121
-140 25 -15 45 -32 45 -36 0 -5 -16 -31 -35 -58 -69 -96 -105 -238 -85 -340
22 -114 80 -189 182 -231 l55 -23 7 -91 c16 -227 105 -394 248 -465 34 -17 71
-31 84 -31 18 0 30 -13 54 -59 61 -114 184 -233 292 -284 64 -30 170 -57 224
-57 34 0 46 -7 94 -56 128 -131 301 -212 493 -230 39 -3 79 -12 87 -19 8 -7
49 -31 90 -53 116 -63 210 -82 460 -95 306 -16 447 -13 545 12 85 23 132 49
60 34 -69 -14 -283 -8 -375 11 -163 34 -325 119 -384 204 l-31 44 -3 -36 c-2
-19 1 -52 7 -73 6 -20 9 -39 7 -41 -10 -9 -125 23 -177 48 -64 33 -127 98
-136 140 -3 17 -7 30 -9 30 -1 0 -18 -9 -37 -20 -142 -84 -453 53 -537 235
l-23 50 -106 0 c-104 0 -109 1 -184 38 -139 69 -250 195 -327 371 l-34 79 -33
-38 -33 -38 -37 29 c-87 71 -143 247 -124 388 12 85 38 144 76 174 33 26 32
34 -2 21 -16 -6 -64 -12 -109 -12 -92 -1 -134 16 -171 73 -27 39 -29 71 -7
153 26 100 50 136 180 264 68 66 124 124 124 127 0 4 -18 -3 -40 -14 -112 -57
-307 6 -326 107 -8 42 0 52 95 115 172 117 303 274 422 510 92 180 194 314
311 408 l46 37 -49 6 c-130 16 -331 200 -427 392 -132 266 -133 574 -2 840 58
119 117 195 206 269 186 153 468 217 754 171 104 -17 241 -60 322 -101 151
-77 315 -219 372 -324 l28 -52 -30 -41 c-53 -76 -115 -227 -92 -227 5 0 35 23
67 51 266 234 661 376 1100 396 l143 6 0 -49 c0 -90 -1 -90 -98 -98 -309 -24
-681 -167 -844 -325 -68 -66 -76 -101 -32 -142 34 -32 92 -31 159 3 28 14 101
51 164 82 144 73 315 130 465 156 154 26 172 26 180 -2 11 -44 7 -188 -6 -192
-7 -2 -66 -10 -130 -19 -191 -26 -401 -106 -517 -197 -173 -137 -86 -265 126
-184 165 63 266 93 382 114 67 11 124 20 126 18 1 -2 -1 -34 -6 -71 -15 -124
-56 -190 -182 -294 -35 -29 -34 -38 7 -79 31 -31 40 -34 90 -34 73 0 158 42
214 105 l41 46 43 -47 c95 -103 217 -136 279 -75 41 41 37 64 -16 101 -79 54
-128 138 -151 257 -8 41 -14 79 -14 84 0 24 260 -33 420 -94 111 -41 147 -50
203 -51 63 -1 71 1 93 27 31 36 30 53 -3 106 -71 109 -328 225 -590 267 -59 9
-114 18 -120 20 -10 2 -13 33 -13 110 l0 106 63 -7 c207 -22 404 -83 613 -188
162 -82 211 -99 255 -90 58 11 86 78 53 128 -37 57 -220 171 -378 235 -162 66
-440 130 -565 130 -40 0 -41 1 -41 33 0 17 -3 50 -7 71 l-6 39 129 -6 c218
-12 444 -51 624 -109 161 -52 370 -171 510 -291 35 -31 66 -54 68 -53 9 10
-49 151 -85 205 l-43 64 27 46 c38 65 163 192 250 252 307 212 727 258 1032
114 238 -113 403 -328 457 -594 25 -128 16 -337 -21 -451 -55 -172 -118 -275
-244 -400 -94 -93 -188 -149 -267 -158 l-44 -5 55 -39 c94 -67 222 -239 308
-413 111 -224 232 -372 402 -490 121 -84 131 -99 104 -159 -38 -83 -245 -132
-321 -76 -59 43 -35 12 81 -106 130 -132 172 -201 192 -309 11 -55 10 -64 -10
-103 -42 -83 -181 -114 -296 -66 -14 6 -9 -4 17 -35 117 -137 96 -420 -41
-544 -23 -20 -45 -37 -50 -37 -5 0 -22 17 -39 37 l-29 37 -41 -88 c-101 -215
-212 -328 -381 -387 -58 -20 -154 -25 -195 -9 -23 9 -26 7 -26 -14 0 -30 -53
-110 -105 -159 -86 -80 -292 -157 -387 -144 -23 3 -54 15 -71 27 -31 24 -47
16 -47 -22 0 -54 -139 -147 -253 -169 -64 -13 -74 -10 -58 19 14 26 14 122 1
122 -5 0 -10 -4 -10 -10 0 -19 -76 -94 -133 -131 -75 -49 -206 -96 -320 -114
-103 -17 -275 -20 -324 -6 -19 5 -35 6 -38 1 -7 -11 46 -26 165 -46 90 -15
201 -15 385 1 28 2 104 6 170 9 192 8 336 46 434 114 48 32 67 39 147 49 185
23 380 115 478 226 46 52 54 57 91 57 62 0 151 26 243 71 105 51 225 164 270
255 29 57 34 62 89 82 82 30 137 74 194 155 64 91 99 199 106 328 l6 96 52 17
c67 21 128 79 163 154 21 46 26 72 26 132 0 98 -22 166 -84 269 -28 46 -49 84
-48 85 2 1 26 16 53 34 89 56 135 133 135 224 -1 100 -34 143 -199 263 -153
110 -243 223 -372 467 -37 71 -79 143 -92 159 l-24 31 83 82 c223 223 335 511
336 865 1 211 -42 391 -131 557 -245 454 -809 648 -1341 462 -207 -73 -411
-201 -580 -365 l-84 -82 -51 23 c-246 115 -683 186 -1144 186 -436 0 -817 -64
-1085 -184 -32 -14 -64 -26 -70 -25 -6 0 -30 24 -53 54 -24 29 -89 92 -145
139 -176 146 -388 253 -593 297 -105 23 -339 33 -430 19z"/>
<path d="M9719 7403 l-34 -38 38 34 c34 33 42 41 34 41 -2 0 -19 -17 -38 -37z"/>
<path d="M5487 7338 c36 -39 87 -118 79 -125 -2 -3 -20 6 -38 20 -66 50 -199
87 -249 69 -23 -9 -21 -11 31 -37 112 -57 221 -144 262 -210 26 -43 23 -48
-24 -40 -110 18 -170 22 -214 14 -123 -22 -120 -29 21 -54 137 -24 177 -34
170 -45 -4 -6 -13 -10 -22 -10 -28 0 -213 -52 -213 -60 0 -18 71 -35 147 -35
51 0 79 -4 75 -10 -3 -5 -35 -47 -70 -93 -35 -46 -62 -85 -59 -88 15 -15 238
158 375 291 l93 90 -31 64 c-56 117 -228 266 -330 285 l-34 6 31 -32z"/>
<path d="M5680 7366 c0 -2 8 -10 18 -17 15 -13 16 -12 3 4 -13 16 -21 21 -21
13z"/>
<path d="M9845 7351 c-28 -10 -69 -29 -91 -43 -60 -38 -164 -156 -204 -231
l-35 -66 40 -41 c91 -95 370 -317 422 -337 16 -6 -77 140 -97 152 -5 3 -14 14
-19 24 -9 16 -5 17 47 13 61 -4 125 9 157 32 17 12 14 15 -41 31 -32 9 -90 23
-129 29 -64 12 -68 14 -45 24 14 6 77 20 140 33 145 28 157 34 100 49 -53 14
-160 14 -244 0 -33 -5 -61 -8 -64 -6 -8 9 50 86 99 130 54 49 193 136 216 136
21 0 15 18 -8 25 -51 17 -183 -25 -256 -81 -18 -14 -33 -21 -33 -16 0 14 56
96 84 121 25 24 34 41 19 41 -5 -1 -31 -9 -58 -19z"/>
<path d="M9882 6019 c3 -13 16 -60 28 -104 18 -62 22 -107 22 -200 0 -139 -21
-238 -74 -338 -42 -81 -155 -194 -232 -232 -57 -29 -57 -30 -30 -37 15 -4 74
-14 130 -22 l103 -16 52 28 c195 101 306 329 269 549 -24 139 -118 289 -227
365 -45 31 -46 31 -41 7z"/>
<path d="M5424 6002 c-95 -69 -180 -201 -209 -324 -31 -131 -14 -255 51 -379
44 -84 110 -147 202 -193 l70 -35 98 15 c145 24 145 24 73 64 -82 47 -170 142
-213 232 -54 114 -69 205 -63 367 5 120 12 169 41 259 10 29 -3 28 -50 -6z"/>
<path d="M6428 5909 c-123 -17 -269 -101 -350 -200 -135 -166 -158 -418 -54
-589 42 -70 149 -153 231 -180 126 -41 305 -45 437 -9 68 18 151 64 196 109
169 169 151 527 -36 724 -105 110 -268 166 -424 145z m297 -190 c119 -71 71
-253 -72 -266 -53 -5 -98 17 -135 68 -35 47 -21 149 26 188 27 22 89 40 121
34 17 -3 44 -14 60 -24z"/>
<path d="M8699 5891 c-114 -37 -216 -127 -276 -244 -35 -69 -51 -128 -63 -228
-40 -319 151 -513 505 -512 176 0 303 42 398 132 193 182 180 499 -27 705 -75
75 -154 123 -245 150 -74 22 -219 20 -292 -3z m321 -163 c55 -29 81 -64 87
-119 8 -85 -59 -159 -146 -159 -59 0 -109 25 -139 70 -20 29 -23 44 -20 88 5
61 29 99 79 124 46 24 86 23 139 -4z"/>
<path d="M4999 5542 c-62 -55 -107 -143 -118 -229 -16 -124 0 -207 55 -289 49
-73 94 -104 190 -129 54 -14 61 -13 125 8 38 12 69 24 69 27 0 3 -23 23 -51
45 -90 68 -161 180 -195 305 -9 36 -20 118 -23 184 l-6 118 -46 -40z"/>
<path d="M10314 5468 c-1 -121 -21 -211 -66 -305 -37 -75 -112 -163 -171 -200
-22 -14 -35 -28 -31 -33 5 -4 40 -17 77 -28 60 -18 74 -19 116 -8 169 44 262
189 248 388 -4 62 -12 94 -36 143 -28 55 -107 145 -129 145 -4 0 -8 -46 -8
-102z"/>
<path d="M7460 5114 c-75 -16 -108 -37 -133 -85 -59 -112 95 -322 266 -363 32
-8 34 -25 8 -81 -70 -155 -362 -207 -513 -92 -57 44 -88 91 -88 137 0 44 -24
70 -66 70 -62 0 -102 -63 -90 -142 18 -115 117 -213 263 -262 l67 -22 26 -66
c15 -36 39 -86 53 -111 51 -87 163 -165 293 -203 70 -20 208 -23 274 -4 75 20
166 70 224 122 53 47 78 89 139 229 12 28 23 38 58 48 208 62 337 251 256 372
-39 59 -127 50 -127 -13 0 -108 -118 -204 -266 -215 -151 -12 -301 54 -345
152 -28 60 -25 70 29 90 180 67 302 243 247 358 -22 47 -52 65 -133 82 -88 19
-354 18 -442 -1z m341 -69 c37 -3 89 -12 118 -21 42 -12 51 -19 51 -37 -1 -72
-91 -171 -189 -208 -135 -51 -309 17 -370 145 -34 68 -29 80 36 100 55 18 212
35 263 30 14 -2 55 -6 91 -9z m52 -755 c63 -24 147 -94 147 -124 0 -56 -62
-131 -140 -171 -146 -74 -327 -48 -437 61 -54 54 -73 112 -49 149 67 102 316
146 479 85z"/>
<path d="M7688 4923 c7 -3 16 -2 19 1 4 3 -2 6 -13 5 -11 0 -14 -3 -6 -6z"/>
<path d="M7769 4899 c30 -10 56 -17 58 -15 5 5 -86 36 -101 35 -6 0 13 -9 43
-20z"/>
<path d="M7040 5040 c-9 -6 -10 -10 -3 -10 6 0 15 5 18 10 8 12 4 12 -15 0z"/>
<path d="M5743 4933 c9 -2 23 -2 30 0 6 3 -1 5 -18 5 -16 0 -22 -2 -12 -5z"/>
<path d="M5893 4933 c9 -2 25 -2 35 0 9 3 1 5 -18 5 -19 0 -27 -2 -17 -5z"/>
<path d="M9413 4933 c9 -2 25 -2 35 0 9 3 1 5 -18 5 -19 0 -27 -2 -17 -5z"/>
<path d="M9583 4933 c9 -2 23 -2 30 0 6 3 -1 5 -18 5 -16 0 -22 -2 -12 -5z"/>
<path d="M5554 4858 l-19 -23 23 19 c12 11 22 21 22 23 0 8 -8 2 -26 -19z"/>
<path d="M9800 4855 c13 -14 26 -25 28 -25 3 0 -5 11 -18 25 -13 14 -26 25
-28 25 -3 0 5 -11 18 -25z"/>
<path d="M6230 4836 c0 -2 8 -10 18 -17 15 -13 16 -12 3 4 -13 16 -21 21 -21
13z"/>
<path d="M6290 4785 c13 -14 26 -25 28 -25 3 0 -5 11 -18 25 -13 14 -26 25
-28 25 -3 0 5 -11 18 -25z"/>
<path d="M9059 4783 c-13 -16 -12 -17 4 -4 16 13 21 21 13 21 -2 0 -10 -8 -17
-17z"/>
<path d="M9842 4770 c0 -14 2 -19 5 -12 2 6 2 18 0 25 -3 6 -5 1 -5 -13z"/>
<path d="M5560 4734 c-58 -10 -118 -28 -155 -47 -47 -23 -108 -67 -102 -73 3
-3 85 12 183 32 152 31 200 37 316 38 76 0 138 4 138 8 0 4 -24 15 -52 24 -52
16 -272 28 -328 18z m-73 -70 c-3 -3 -12 -4 -19 -1 -8 3 -5 6 6 6 11 1 17 -2
13 -5z"/>
<path d="M9555 4733 c-48 -10 -125 -36 -125 -42 0 -3 62 -6 138 -6 75 -1 162
-7 193 -13 30 -7 69 -15 85 -18 16 -2 71 -14 122 -26 51 -11 95 -18 99 -15 22
23 -107 88 -219 111 -71 15 -244 20 -293 9z m380 -48 c40 -18 16 -19 -26 0
-19 8 -27 14 -19 14 8 0 29 -6 45 -14z m21 -20 c23 -1 52 -10 65 -19 21 -15
21 -17 4 -13 -11 3 -55 13 -97 22 -43 9 -78 19 -78 22 0 2 15 1 33 -3 17 -4
51 -8 73 -9z"/>
<path d="M5853 4544 c-143 -31 -317 -119 -363 -184 -11 -15 -20 -31 -20 -34 0
-20 66 3 197 67 82 40 202 91 266 113 91 30 112 40 95 46 -37 10 -108 7 -175
-8z"/>
<path d="M9290 4554 c0 -5 44 -23 98 -40 53 -18 174 -68 267 -112 166 -78 235
-102 235 -82 0 6 -19 31 -42 56 -49 53 -180 121 -298 154 -81 22 -260 39 -260
24z"/>
<path d="M6316 4442 c-22 -27 -24 -32 -7 -17 20 17 47 55 39 55 -2 0 -16 -17
-32 -38z"/>
<path d="M9030 4436 c0 -2 8 -10 18 -17 15 -13 16 -12 3 4 -13 16 -21 21 -21
13z"/>
<path d="M5760 4370 c8 -5 20 -10 25 -10 6 0 3 5 -5 10 -8 5 -19 10 -25 10 -5
0 -3 -5 5 -10z"/>
<path d="M9540 4370 c-9 -6 -10 -10 -3 -10 6 0 15 5 18 10 8 12 4 12 -15 0z"/>
<path d="M9428 4333 c7 -3 16 -2 19 1 4 3 -2 6 -13 5 -11 0 -14 -3 -6 -6z"/>
<path d="M6013 4323 c9 -2 23 -2 30 0 6 3 -1 5 -18 5 -16 0 -22 -2 -12 -5z"/>
<path d="M9323 4323 c9 -2 23 -2 30 0 6 3 -1 5 -18 5 -16 0 -22 -2 -12 -5z"/>
</g>
</svg>
